<svg width="48" height="48" viewBox="0 0 48 48" xmlns="http://www.w3.org/2000/svg">
<path fill-rule="evenodd" clip-rule="evenodd" d="M30.6726 21.8796L27.9623 23.4444C28.1121 24.5157 27.8191 25.6095 27.1536 26.4623L28.7185 29.1727C30.7332 27.3384 31.5003 24.4755 30.6726 21.8796ZM26.1204 30.6727L24.5556 27.9623C23.4843 28.1122 22.3905 27.8191 21.5377 27.1537L18.8273 28.7185C20.6616 30.7332 23.5245 31.5003 26.1204 30.6727ZM29.1726 19.2815L26.4623 20.8463C25.6094 20.1809 24.5157 19.8879 23.4444 20.0377L21.8796 17.3273C24.4755 16.4997 27.3384 17.2668 29.1726 19.2815ZM19.2815 18.8273C17.2668 20.6616 16.4996 23.5245 17.3273 26.1204L20.0377 24.5556C19.8878 23.4843 20.1809 22.3906 20.8463 21.5377L19.2815 18.8273ZM28.5 31.7942C32.8046 29.309 34.2795 23.8046 31.7942 19.5C29.3089 15.1954 23.8046 13.7205 19.5 16.2058C15.1953 18.6911 13.7205 24.1954 16.2057 28.5C18.691 32.8046 24.1953 34.2795 28.5 31.7942ZM25 25.7321C25.9566 25.1798 26.2843 23.9566 25.732 23C25.1797 22.0434 23.9566 21.7157 23 22.268C22.0434 22.8202 21.7156 24.0434 22.2679 25C22.8202 25.9566 24.0434 26.2843 25 25.7321Z"/>
</svg>
