<svg width="48" height="48" viewBox="0 0 48 48" fill="none" xmlns="http://www.w3.org/2000/svg">
<path fill-rule="evenodd" clip-rule="evenodd" d="M15.5 18C15.5 17.4477 15.9477 17 16.5 17H31.5C32.0523 17 32.5 17.4477 32.5 18C32.5 18.5523 32.0523 19 31.5 19H16.5C15.9477 19 15.5 18.5523 15.5 18ZM15.5 24C15.5 23.4477 15.9477 23 16.5 23H31.5C32.0523 23 32.5 23.4477 32.5 24C32.5 24.5523 32.0523 25 31.5 25H16.5C15.9477 25 15.5 24.5523 15.5 24ZM16.5 29C15.9477 29 15.5 29.4477 15.5 30C15.5 30.5523 15.9477 31 16.5 31H31.5C32.0523 31 32.5 30.5523 32.5 30C32.5 29.4477 32.0523 29 31.5 29H16.5Z" fill="#222222"/>
</svg>
