<svg width="48" height="48" viewBox="0 0 48 48" xmlns="http://www.w3.org/2000/svg">
<g filter="url(#filter0_d_30_4)">
<path fill-rule="evenodd" clip-rule="evenodd" d="M17 21V17H21V21H17ZM15 16C15 15.4477 15.4477 15 16 15H22C22.5523 15 23 15.4477 23 16V22C23 22.5523 22.5523 23 22 23H16C15.4477 23 15 22.5523 15 22V16ZM27 21V17H31V21H27ZM25 16C25 15.4477 25.4477 15 26 15H32C32.5523 15 33 15.4477 33 16V22C33 22.5523 32.5523 23 32 23H26C25.4477 23 25 22.5523 25 22V16ZM17 27V31H21V27H17ZM16 25C15.4477 25 15 25.4477 15 26V32C15 32.5523 15.4477 33 16 33H22C22.5523 33 23 32.5523 23 32V26C23 25.4477 22.5523 25 22 25H16ZM27 31V27H31V31H27ZM25 26C25 25.4477 25.4477 25 26 25H32C32.5523 25 33 25.4477 33 26V32C33 32.5523 32.5523 33 32 33H26C25.4477 33 25 32.5523 25 32V26Z"/>
</g>
<defs>
<filter id="filter0_d_30_4" x="-4" y="0" width="56" height="56" filterUnits="userSpaceOnUse" color-interpolation-filters="sRGB">
<feFlood flood-opacity="0" result="BackgroundImageFix"/>
<feGaussianBlur stdDeviation="2"/>
<feComposite in2="hardAlpha" operator="out"/>
<feColorMatrix type="matrix" values="0 0 0 0 0 0 0 0 0 0 0 0 0 0 0 0 0 0 0.25 0"/>
<feBlend mode="normal" in2="BackgroundImageFix" result="effect1_dropShadow_30_4"/>
<feBlend mode="normal" in="SourceGraphic" in2="effect1_dropShadow_30_4" result="shape"/>
</filter>
</defs>
</svg>
