<svg width="48" height="48" viewBox="0 0 48 48" fill="none" xmlns="http://www.w3.org/2000/svg">
<path fill-rule="evenodd" clip-rule="evenodd" d="M27 21C27 22.6569 25.6569 24 24 24C22.3431 24 21 22.6569 21 21C21 19.3431 22.3431 18 24 18C25.6569 18 27 19.3431 27 21ZM29 21C29 23.7614 26.7614 26 24 26C21.2386 26 19 23.7614 19 21C19 18.2386 21.2386 16 24 16C26.7614 16 29 18.2386 29 21ZM31.9862 31.502C31.9147 30.9452 31.784 30.4065 31.6007 29.892C31.1403 28.6004 30.3475 27.4619 29.323 26.5752C29.2523 26.5141 29.1805 26.4541 29.1076 26.3953L29.0989 26.3883C29.058 26.3554 29.0166 26.3228 28.975 26.2906C28.8368 26.1839 28.6693 26.1181 28.4948 26.1121C27.9838 26.0947 27.7243 26.2137 27.5246 26.4395C27.1654 26.8456 27.3611 27.488 27.7565 27.8683C27.7704 27.8817 27.7846 27.8948 27.799 27.9075C27.8142 27.9209 27.8297 27.934 27.8454 27.9466C27.8932 27.985 27.9403 28.0242 27.9868 28.0639C28.1474 28.2014 28.3004 28.3469 28.4452 28.4998C28.9892 29.0745 29.4166 29.7536 29.693 30.4998H27.4762H20.5229H18.306C18.5824 29.7536 19.0099 29.0745 19.5539 28.4998C19.6965 28.3491 19.8472 28.2056 20.0053 28.0699C20.0542 28.0279 20.1039 27.9867 20.1542 27.9462C20.1699 27.9336 20.1853 27.9206 20.2005 27.9072C20.2148 27.8945 20.229 27.8815 20.2428 27.8681C20.6384 27.4879 20.8344 26.8455 20.4752 26.4393C20.2756 26.2136 20.016 26.0945 19.505 26.1118C19.3303 26.1177 19.1628 26.1835 19.0245 26.2903C18.9829 26.3224 18.9417 26.3549 18.9009 26.3877L18.8919 26.3949C18.8136 26.4581 18.7365 26.5227 18.6606 26.5886C17.6436 27.4734 16.8565 28.6069 16.3984 29.892C16.215 30.4065 16.0844 30.9452 16.0128 31.502C15.9424 32.0498 16.3969 32.4998 16.9492 32.4998H18.306H29.693H31.0499C31.6021 32.4998 32.0566 32.0498 31.9862 31.502Z" fill="#EAEAEA"/>
</svg>
