<svg width="48" height="48" viewBox="0 0 48 48" xmlns="http://www.w3.org/2000/svg">
<path fill-rule="evenodd" clip-rule="evenodd" d="M18 15C17.4477 15 17 15.4477 17 16C17 16.5523 17.4477 17 18 17H22.2191L23.8204 18.4836L24.108 18.75H24.5H31V30C31 30.5523 31.4477 31 32 31C32.5523 31 33 30.5523 33 30V18.75C33 17.6454 32.1046 16.75 31 16.75H24.892L23.5783 15.5329C23.2086 15.1903 22.7231 15 22.2191 15H18ZM21.597 22.1753L22.1808 22.75H23H27V31H17V21H20.403L21.597 22.1753ZM21.5141 19.2873L23 20.75H28C28.5523 20.75 29 21.1977 29 21.75V32C29 32.5523 28.5523 33 28 33H16C15.4477 33 15 32.5523 15 32V20C15 19.4477 15.4477 19 16 19H20.8126C21.0751 19 21.3271 19.1032 21.5141 19.2873Z"/>
</svg>
