<svg width="48" height="48" viewBox="0 0 48 48" xmlns="http://www.w3.org/2000/svg">
<path fill-rule="evenodd" clip-rule="evenodd" d="M20 15.5C20.5523 15.5 21 15.9477 21 16.5V18H27V16.5C27 15.9477 27.4477 15.5 28 15.5C28.5523 15.5 29 15.9477 29 16.5V18H31C32.1046 18 33 18.8954 33 20V30C33 31.1046 32.1046 32 31 32H17C15.8954 32 15 31.1046 15 30V20C15 18.8954 15.8954 18 17 18H19V16.5C19 15.9477 19.4477 15.5 20 15.5ZM27 20V20.5C27 21.0523 27.4477 21.5 28 21.5C28.5523 21.5 29 21.0523 29 20.5V20H31V30H17L17 20H19V20.5C19 21.0523 19.4477 21.5 20 21.5C20.5523 21.5 21 21.0523 21 20.5V20H27Z"/>
</svg>
