<svg width="48" height="48" viewBox="0 0 48 48" xmlns="http://www.w3.org/2000/svg">
<path fill-rule="evenodd" clip-rule="evenodd" d="M24.606 15.2046C24.248 14.9318 23.752 14.9318 23.394 15.2046L15.9129 20.9044C15.4164 21.2827 15.125 21.8711 15.125 22.4953V32C15.125 33.212 16.1904 34 17.25 34H21H27H30.75C31.8096 34 32.875 33.212 32.875 32V22.4953C32.875 21.8711 32.5836 21.2827 32.0871 20.9044L24.606 15.2046ZM28 32H30.75C30.8136 32 30.8551 31.9795 30.875 31.9647V22.4953L24 17.2572L17.125 22.4953L16.519 21.6998L17.125 22.4953V31.9647C17.1449 31.9795 17.1864 32 17.25 32H20V26C20 25.4477 20.4477 25 21 25H27C27.5523 25 28 25.4477 28 26V32ZM22 32H26V27H22V32Z"/>
</svg>
